Coordinates
version=1
nRows=4
nColumns=63
inDegrees=yes

Units are S.I. units (second, meters, Newtons, ...)
If the header above contains a line with 'inDegrees', this indicates whether rotational values are in degrees (yes) or radians (no).

endheader
time	pelvis_tilt	pelvis_list	pelvis_rotation	pelvis_tx	pelvis_ty	pelvis_tz	hip_flexion_r	hip_adduction_r	hip_rotation_r	knee_angle_r	knee_angle_r_beta	ankle_angle_r	subtalar_angle_r	mtp_angle_r	hip_flexion_l	hip_adduction_l	hip_rotation_l	knee_angle_l	knee_angle_l_beta	ankle_angle_l	subtalar_angle_l	mtp_angle_l	L5_S1_Flex_Ext	L5_S1_Lat_Bending	L5_S1_axial_rotation	L4_L5_Flex_Ext	L4_L5_Lat_Bending	L4_L5_axial_rotation	L3_L4_Flex_Ext	L3_L4_Lat_Bending	L3_L4_axial_rotation	L2_L3_Flex_Ext	L2_L3_Lat_Bending	L2_L3_axial_rotation	L1_L2_Flex_Ext	L1_L2_Lat_Bending	L1_L2_axial_rotation	L1_T12_Flex_Ext	L1_T12_Lat_Bending	L1_T12_axial_rotation	Abs_r3	Abs_r2	Abs_r1	Abs_t1	Abs_t2	neck_flexion	neck_bending	neck_rotation	arm_flex_r	arm_add_r	arm_rot_r	elbow_flex_r	pro_sup_r	wrist_flex_r	wrist_dev_r	arm_flex_l	arm_add_l	arm_rot_l	elbow_flex_l	pro_sup_l	wrist_flex_l	wrist_dev_l
      2.83050847	      0.80585222	     -4.74537768	     90.97696400	      0.17707691	      1.02099833	      0.48457548	      0.27760998	      0.04658079	     -4.98827360	     15.67987797	      0.27366550	     31.58011103	     -0.44230967	      0.00000000	      1.56259032	      1.43219887	     -3.06153296	     18.65209343	      0.32554044	     34.84741767	     -3.79240785	      0.00000000	     -0.35205482	     -0.03893587	     -0.19466300	     -0.65380100	     -0.05178470	     -0.20682944	     -0.57839086	     -0.09466866	     -0.20682944	     -0.40236345	     -0.09466866	     -0.17033013	     -0.32691810	     -0.07939802	     -0.15816369	     -0.20116412	     -0.06031166	     -0.14599725	     -2.51469236	     -0.44045030	     -1.08265723	      0.00000000	      0.00000000	      5.29515502	      4.09980860	    -22.19605370	     30.88170660	    -14.18402744	    -69.43554921	    137.79557825	     88.00258687	    -28.20348306	      7.59846859	    -12.22987906	    -11.36282082	     17.20892419	     33.08183771	     84.15917507	    -11.69418502	    -15.55087664
      2.84745763	      1.20944534	     -4.88001213	     91.34500518	      0.17656731	      1.02008891	      0.48460516	      0.35188105	      0.47102774	     -5.39205162	     15.56733989	      0.27170134	     31.60404833	     -0.62333163	      0.00000000	      1.80716794	      1.22008283	     -1.66425407	     18.75763539	      0.32738250	     34.95548400	     -5.35371931	      0.00000000	     -0.35764313	      0.04832808	     -0.16129268	     -0.66417905	      0.06427635	     -0.17137348	     -0.58757190	      0.11750489	     -0.17137348	     -0.40875033	      0.11750489	     -0.14113110	     -0.33210741	      0.09855062	     -0.13105031	     -0.20435728	      0.07486020	     -0.12096951	     -2.55460910	      0.54669690	     -0.89706152	      0.00000000	      0.00000000	      5.92341592	      4.42849126	    -23.40464372	     30.35479061	    -12.18587418	    -71.99802227	    138.94942940	     87.83092923	    -25.93939839	      7.78325221	    -11.55407932	    -11.33782023	     19.61401329	     32.34824510	     83.95786374	    -11.34434479	    -15.57279527
      2.86440678	      1.60510854	     -4.99718611	     91.66488621	      0.17613677	      1.01900007	      0.48481981	      0.45488650	      0.85837908	     -5.78387778	     15.48161581	      0.27020517	     31.87456135	     -0.28615730	      0.00000000	      2.11283829	      1.04745156	     -0.08547318	     19.00719398	      0.33173812	     34.98147548	     -7.24737492	      0.00000000	     -0.37089480	      0.12909916	     -0.14189170	     -0.68878874	      0.17170188	     -0.15075993	     -0.60934307	      0.31389169	     -0.15075993	     -0.42389567	      0.31389169	     -0.12415524	     -0.34441292	      0.26325900	     -0.11528701	     -0.21192929	      0.19997459	     -0.10641878	     -2.64926450	      1.46039546	     -0.78915908	      0.00000000	      0.00000000	      6.73730224	      5.05186907	    -24.07892259	     30.44571997	    -10.30990731	    -73.75251415	    140.42684658	     88.14014628	    -24.64266388	     10.11105548	    -10.77821456	    -11.34760657	     22.39941894	     31.60286614	     83.43564084	    -11.96507825	    -15.99956767
      2.88135593	      2.00329275	     -5.13590332	     91.81895070	      0.17605432	      1.01780581	      0.48494906	      0.65394102	      1.27066579	     -5.85404372	     15.47330378	      0.27006010	     32.19091235	     -0.13658569	      0.00000000	      2.50528037	      0.68571058	      0.28335108	     19.43828400	      0.33926206	     35.39085619	     -7.65916870	      0.00000000	     -0.37874617	      0.20107217	     -0.11936283	     -0.70336951	      0.26742598	     -0.12682301	     -0.62224208	      0.48888687	     -0.12682301	     -0.43286900	      0.48888687	     -0.10444248	     -0.35170369	      0.41002636	     -0.09698230	     -0.21641556	      0.31146079	     -0.08952213	     -2.70534600	      2.27456857	     -0.66386028	      0.00000000	      0.00000000	      7.79276160	      6.14127628	    -24.11420384	     31.12499594	     -8.49011373	    -74.33555653	    141.39157730	     88.48999683	    -24.88066067	     10.08747968	    -10.19571653	    -11.20318155	     23.72330459	     31.06606482	     84.06695617	    -11.73964521	    -16.04155627
